PathFileType	4	(X/Y/Z)	Run_400 02
DataRate	CameraRate	NumFrames	NumMarkers	Units	OrigDataRate	OrigDataStartFrame	OrigNumFrames
100	100	6	42	mm	100	192	128
Frame#	Time	LASI			RASI			LPSI			RPSI			RTH1			RTH2			RTH3			LTH1			LTH2			LTH3			RTB1			RTB2			RTB3			LTB1			LTB2			LTB3			RCAL			RTOE			RMT5			LCAL			LTOE			LMT5			LACR			RACR			CLAV			C7			RUA1			RUA2			RUA3			RLEL			RMEL			LUA1			LUA2			LUA3			LLEL			LMEL			RFAsuperior			RFAradius			RFAulna			LFAsuperior			LFAradius			LFAulna			
		X1	Y1	Z1	X2	Y2	Z2	X3	Y3	Z3	X4	Y4	Z4	X5	Y5	Z5	X6	Y6	Z6	X7	Y7	Z7	X8	Y8	Z8	X9	Y9	Z9	X10	Y10	Z10	X11	Y11	Z11	X12	Y12	Z12	X13	Y13	Z13	X14	Y14	Z14	X15	Y15	Z15	X16	Y16	Z16	X17	Y17	Z17	X18	Y18	Z18	X19	Y19	Z19	X20	Y20	Z20	X21	Y21	Z21	X22	Y22	Z22	X23	Y23	Z23	X24	Y24	Z24	X25	Y25	Z25	X26	Y26	Z26	X27	Y27	Z27	X28	Y28	Z28	X29	Y29	Z29	X30	Y30	Z30	X31	Y31	Z31	X32	Y32	Z32	X33	Y33	Z33	X34	Y34	Z34	X35	Y35	Z35	X36	Y36	Z36	X37	Y37	Z37	X38	Y38	Z38	X39	Y39	Z39	X40	Y40	Z40	X41	Y41	Z41	X42	Y42	Z42	

184	2.6	892.704114	953.839158	-434.116574	894.852353	950.426999	-195.760052	730.964861	1002.165871	-366.330227	728.408086	997.123755	-266.704864	813.864043	714.123598	-130.95516	865.498416	623.981813	-132.807389	801.984417	540.968789	-143.921819	897.92282	767.593253	-480.246713	986.730819	693.33225	-452.106525	971.587439	576.229326	-426.542987	675.670167	450.052681	-208.812293	606.039564	505.377887	-163.758773	497.771515	518.0061020000001	-228.357041	1033.869471	398.677429	-330.448481	982.488806	312.036065	-388.316034	989.170522	209.870667	-302.785516	453.157794	633.765203	-262.193689	306.365909	467.100285	-247.381419	308.270158	536.252621	-159.15381	866.407026	106.710994	-276.41084	1083.848602	67.854027	-275.135574	1034.037054	51.720473	-375.33794	896.673726	1429.080976	-490.181766	911.330839	1439.50819	-192.302966	990.445034	1357.381401	-325.786307	852.701872	1461.811194	-334.568712	871.8341789999999	1351.065253	-81.997619	797.215235	1301.014394	-75.623932	840.1784730000001	1250.829551	-13.203687	811.423979	1197.200258	30.468186	768.446463	1163.308047	-24.7184	796.934926	1350.882878	-570.368724	740.167378	1312.639993	-514.9852979999999	738.568977	1268.418036	-590.2976180000001	678.027786	1205.805612	-605.192302	664.749511	1185.136673	-534.422375	918.799667	1160.890752	-0.398631	1006.523376	1123.079149	-101.139995	996.094322	1068.691459	-56.92618	790.731589	1171.988867	-606.585738	899.203176	1104.144886	-539.022856	871.099571	1069.124303	-592.291569	
185	2.61	887.908757	952.058845	-436.645606	892.059041	944.423212	-197.92163	725.869319	997.942083	-363.307244	723.941695	992.241143	-263.537398	825.159519	708.718265	-130.381663	883.352511	622.05103	-133.980248	827.2144520000001	535.7148100000001	-142.25349	891.600675	765.156063	-479.924476	979.0732870000001	693.946908	-453.62174	965.742561	573.234314	-426.107251	705.4016319999999	448.738944	-209.875729	636.274441	503.010779	-162.842675	528.6656379999999	519.738627	-227.140167	1017.500159	392.378511	-328.844943	959.25336	310.121828	-388.651878	958.418711	207.328438	-302.904098	484.32606	637.710583	-258.759085	337.219997	471.829355	-244.96749	342.873656	537.602943	-154.344212	826.081115	107.183612	-277.821143	1043.600805	68.477447	-276.162546	993.74203	51.728982	-375.973202	896.3389989999999	1423.056801	-490.876107	909.464533	1434.365157	-190.758105	989.937222	1351.833188	-324.097446	854.888986	1458.084111	-334.96907	865.403669	1345.74733	-81.962822	787.806935	1297.286106	-80.75541200000001	826.120541	1247.257624	-15.153361	793.680431	1194.90544	27.302641	751.510214	1163.101518	-29.319678	802.464778	1337.333676	-573.456491	743.871486	1298.114157	-521.0166369999999	747.607787	1253.220844	-595.193976	690.109948	1189.662647	-612.396837	674.672804	1168.174922	-542.478887	899.411094	1150.118523	1.896675	988.122037	1102.782633	-94.058042	972.963243	1051.028371	-47.770032	803.715818	1157.876687	-608.957701	910.107931	1090.337617	-539.12174	886.047409	1055.829281	-594.454353	
186	2.62	883.843163	950.711094	-438.989834	889.242735	939.783693	-199.052721	721.720937	994.617104	-360.97867	720.4744459999999	989.086272	-261.232802	837.056819	705.181186	-129.972401	902.981978	623.150587	-135.69518	854.484519	533.608997	-141.116246	885.749821	762.534219	-479.422611	969.136588	689.441366	-454.253677	953.165662	567.042627	-424.894583	736.692034	447.626784	-211.224931	668.11563	500.811781	-162.225632	560.742982	519.549606	-226.008036	998.32663	381.608262	-332.47136	932.322734	304.746994	-388.550839	925.737496	202.610326	-303.24802	513.561922	639.563392	-253.962423	370.221488	471.204662	-244.286674	378.031855	532.09979	-150.363081	786.510341	107.619029	-279.242807	1003.979274	68.01267199999999	-277.069282	954.09762	50.985599	-376.952814	896.087355	1417.98806	-490.712509	908.900245	1429.435567	-189.57194	989.1322280000001	1346.843006	-322.711808	856.810884	1454.985042	-335.146251	859.53814	1341.881604	-82.18252	779.578168	1295.337927	-87.29827899999999	812.264871	1245.547198	-17.930025	776.198937	1194.566852	23.458854	734.809446	1164.79574	-34.614076	808.046109	1325.455123	-574.498573	747.7670900000001	1284.52746	-525.7488959999999	757.6685189999999	1240.017236	-599.352773	703.943629	1174.556099	-619.610985	686.140894	1152.003476	-550.711607	879.3781320000001	1141.258131	3.134418	967.9543640000001	1084.040755	-87.34642100000001	947.283039	1035.318519	-39.563724	818.425295	1145.066414	-610.870423	922.574516	1077.258649	-539.047069	902.805268	1043.879043	-596.0609889999999	
187	2.63	879.801125	948.9887210000001	-440.780625	886.594724	936.696269	-199.199805	718.696866	992.548896	-360.006705	718.173512	987.445963	-260.374079	849.411259	703.848732	-129.937867	923.1295229999999	627.576352	-137.487431	882.451222	534.878546	-140.763552	879.5502729999999	758.739991	-479.135249	958.495281	679.004686	-454.046711	936.1200689999999	558.800215	-423.397935	768.743915	447.187481	-213.00878	700.823665	499.338419	-161.945286	592.885956	517.6671	-224.893217	977.11461	369.843801	-337.963941	905.405663	297.656741	-387.080029	891.666104	197.460073	-302.378839	539.980005	639.280307	-248.813813	404.601989	464.994566	-244.449866	412.859868	521.051967	-147.341923	747.56781	108.348971	-279.919042	964.911839	66.85261800000001	-277.218643	914.875119	50.547772	-377.522296	896.325681	1413.864329	-490.058077	909.270514	1425.039606	-188.527182	988.28625	1342.332466	-321.708258	857.138649	1452.209814	-334.515388	853.650495	1339.293748	-82.509002	772.349455	1295.229287	-94.403643	798.720736	1245.508601	-21.300258	759.1365	1196.256436	19.112911	718.69873	1168.412426	-40.473658	812.900575	1315.843466	-573.0622969999999	751.676411	1271.816406	-528.998533	768.3322879999999	1229.052427	-602.7472289999999	719.184132	1161.085976	-626.502693	698.93326	1137.214415	-558.7447079999999	858.9109989999999	1134.617801	3.679319	946.521574	1067.992402	-81.40455300000001	919.701851	1022.670311	-32.87189	834.413936	1134.186897	-612.828206	937.1365950000001	1066.718446	-538.704307	921.200202	1034.605869	-596.860786	
188	2.64	875.791415	946.563931	-441.654305	884.213426	935.226582	-198.766214	716.371816	991.690203	-360.205547	716.56762	986.873301	-260.690844	861.6835139999999	704.867799	-130.443679	942.423576	635.335004	-139.071966	909.79017	539.79179	-141.280979	871.888039	753.4812030000001	-478.918033	947.580834	665.7186400000001	-453.333004	917.848073	550.163631	-422.254671	800.982425	448.283217	-215.282319	733.343922	498.921965	-162.032602	624.055977	514.285657	-223.862529	953.3826330000001	359.958444	-340.93332	878.467119	291.277961	-385.063339	856.440105	193.442672	-300.88014	563.233039	636.328514	-244.356354	439.787951	453.449643	-244.786314	446.693817	505.778706	-145.289348	708.421104	109.357801	-280.177188	925.600788	66.10252800000001	-277.078229	875.357168	50.594035	-377.729935	897.196097	1410.755632	-489.325589	909.740362	1421.640039	-187.488618	987.515622	1338.55798	-320.87904	855.831594	1449.924361	-332.975344	847.273716	1338.032825	-82.873043	765.381531	1296.957514	-100.972952	785.464472	1247.104564	-24.870468	742.449671	1199.858989	14.446167	703.335113	1173.910264	-46.821103	816.803487	1308.637182	-569.953753	755.915948	1259.915914	-531.230956	779.218488	1220.355914	-605.573907	735.346334	1149.756415	-632.789971	712.767515	1124.349806	-566.207538	838.049145	1130.353539	3.969616	924.373708	1055.63738	-76.361983	891.30483	1013.716821	-28.267827	851.1788330000001	1125.971059	-614.823339	954.094649	1060.453978	-537.745255	940.858547	1029.160483	-596.495764	
189	2.65	872.315438	943.632602	-441.445888	882.307916	935.233237	-198.186331	714.247153	991.702871	-360.79251	715.1405150000001	987.020052	-261.367129	873.336633	708.064517	-131.408421	960.132924	645.993068	-140.42227	935.692505	548.358999	-142.528348	862.007671	747.61682	-478.55708	935.093237	653.6717180000001	-452.889329	899.5844959999999	542.388814	-421.92433	832.999809	451.577501	-217.812685	764.609949	499.574428	-162.552622	653.713257	509.497465	-223.102437	926.716681	352.58966	-339.917345	849.374676	286.992481	-384.047411	820.550934	190.907482	-300.161821	583.538229	629.901683	-241.285785	475.636327	437.191006	-245.025091	479.395683	487.157637	-144.116601	668.693667	110.584669	-280.513689	885.6830220000001	65.994198	-277.242746	835.236384	50.71433	-378.023505	898.555997	1408.760245	-488.641294	909.555847	1419.551595	-186.47196	986.785153	1335.884372	-319.894013	854.189477	1448.531116	-331.309124	840.366265	1338.30539	-83.324691	757.982569	1300.554199	-106.291252	772.506024	1250.35565	-28.368776	726.120707	1205.217269	9.583083	688.65341	1181.221756	-53.498984	820.397381	1303.634252	-567.009112	761.184795	1249.274469	-533.08835	790.113029	1213.944983	-608.083038	751.93388	1140.911486	-638.3457100000001	727.456814	1113.83157	-572.868091	816.994648	1128.673574	4.05741	902.056549	1047.571942	-72.16865900000001	863.1736529999999	1008.480619	-26.154002	868.227537	1121.144121	-616.332139	973.07917	1059.335557	-535.823886	961.30065	1028.155485	-594.692636	
